<?xml version="1.0" encoding="UTF-8" standalone="no"?>
<svg
   version="1.0"
   width="564.000000pt"
   height="663.000000pt"
   viewBox="0 0 564.000000 663.000000"
   preserveAspectRatio="xMidYMid meet"
   id="svg271"
   sodipodi:docname="logoIF.svg"
   inkscape:version="1.1 (c68e22c387, 2021-05-23)"
   xmlns:inkscape="http://www.inkscape.org/namespaces/inkscape"
   xmlns:sodipodi="http://sodipodi.sourceforge.net/DTD/sodipodi-0.dtd"
   xmlns="http://www.w3.org/2000/svg"
   xmlns:svg="http://www.w3.org/2000/svg">
  <defs
     id="defs275" />
  <sodipodi:namedview
     id="namedview273"
     pagecolor="#505050"
     bordercolor="#ffffff"
     borderopacity="1"
     inkscape:pageshadow="0"
     inkscape:pageopacity="0"
     inkscape:pagecheckerboard="1"
     inkscape:document-units="pt"
     showgrid="false"
     inkscape:zoom="0.91515837"
     inkscape:cx="376.43758"
     inkscape:cy="427.79481"
     inkscape:window-width="1920"
     inkscape:window-height="1017"
     inkscape:window-x="-8"
     inkscape:window-y="32"
     inkscape:window-maximized="1"
     inkscape:current-layer="g269" />
  <g
     transform="translate(0.000000,663.000000) scale(0.100000,-0.100000)"
     fill="#000000"
     stroke="none"
     id="g269">
    <path
       d="m 1003.3328,6341.3779 c -334.39363,-81.1722 -548.30724,-327.0078 -570.43618,-651.6964 -22.12906,-275.9853 125.39761,-524.1403 388.48674,-660.9733 120.47996,-62.6185 154.90295,-69.5762 354.06374,-69.5762 181.9495,0 238.5014,9.2769 324.5585,53.3418 162.2794,81.1721 270.4655,183.2171 344.2288,324.6886 59.0107,111.3218 68.8458,160.0252 66.3869,317.731 0,215.686 -63.9281,359.4767 -223.7486,503.2674 -167.1969,153.0675 -472.0851,236.5589 -683.5399,183.2171 z"
       id="path143"
       style="stroke-width:2.38797;fill:#ffffff" />
    <path
       d="m 2161.4166,6241.6522 c -31.9641,-44.065 -39.3404,-141.4715 -39.3404,-602.9933 0,-521.8209 2.4587,-554.2897 49.1755,-598.3547 46.7168,-44.0648 81.1396,-46.3841 634.3645,-46.3841 489.2965,0 592.5651,6.9577 639.2819,37.1073 54.093,34.7881 54.093,41.7457 54.093,621.5468 0,424.4144 -7.3762,591.3972 -29.5053,612.2701 -22.1289,20.8727 -199.161,27.8304 -649.117,27.8304 -614.6942,0 -622.0705,0 -658.9522,-51.0225 z"
       id="path145"
       style="stroke-width:2.38797;fill:#ffffff" />
    <path
       d="m 3823.5497,6264.8443 c -22.1291,-20.8729 -29.5053,-187.8557 -29.5053,-612.2701 0,-579.8011 0,-586.7587 54.093,-621.5468 46.7167,-30.1496 149.9854,-37.1073 624.5293,-37.1073 523.7195,0 575.3537,4.6385 626.988,44.0649 l 59.0107,44.0648 v 568.2052 c 0,445.2873 -7.3763,572.8435 -34.4229,602.9932 -29.5053,34.788 -105.7274,39.4265 -651.5758,39.4265 -449.9561,0 -626.9881,-6.9577 -649.117,-27.8304 z"
       id="path147"
       style="stroke-width:2.38797;fill:#ffffff" />
    <path
       d="m 516.49498,4697.0619 c -36.8816,-37.1072 -41.79911,-115.9602 -41.79911,-612.2699 0,-521.8211 4.91751,-570.5244 44.25787,-605.3124 39.34049,-34.7881 122.93885,-39.4265 649.11706,-39.4265 553.2247,0 604.8591,4.6384 641.7408,41.7457 36.8816,37.1072 41.7992,115.9602 41.7992,612.27 0,521.821 -4.9176,570.5242 -44.258,605.3123 -39.3405,34.7882 -122.9389,39.4266 -649.1171,39.4266 -553.22471,0 -604.85898,-4.6384 -641.74072,-41.7458 z"
       id="path149"
       style="stroke-width:2.38797;fill:#ffffff" />
    <path
       d="m 2161.4166,4687.7851 c -31.9641,-44.0648 -39.3404,-141.4715 -39.3404,-602.9931 0,-521.8211 2.4587,-554.2899 49.1755,-598.3549 46.7168,-44.0648 81.1396,-46.384 649.1171,-46.384 513.8844,0 607.3179,4.6384 639.282,37.1073 59.0105,53.3417 59.0105,1171.1983 0,1224.54 -31.9641,32.4689 -125.3976,37.1073 -649.1171,37.1073 -604.8591,0 -612.2354,0 -649.1171,-51.0226 z"
       id="path151"
       style="stroke-width:2.38797;fill:#ffffff" />
    <path
       d="m 528.7889,3147.8333 c -54.09303,-34.788 -54.09303,-41.7457 -54.09303,-612.27 0,-493.9906 4.91751,-582.1203 39.34036,-612.27 56.55192,-55.6609 1241.68227,-55.6609 1298.23407,0 34.4229,30.1497 39.3405,118.2794 39.3405,602.9932 0,535.7363 -2.4588,568.2051 -49.1755,612.2699 -46.7168,44.065 -81.1398,46.3842 -634.3645,46.3842 -489.29647,0 -592.56514,-6.9576 -639.2819,-37.1073 z"
       id="path153"
       style="stroke-width:2.38797;fill:#ffffff" />
    <path
       d="m 2171.2517,3138.5564 c -46.7168,-44.0648 -49.1755,-76.5336 -49.1755,-598.3547 0,-461.5216 7.3763,-558.9283 39.3404,-602.9931 36.8817,-51.0225 44.258,-51.0225 658.9522,-51.0225 449.956,0 626.9881,6.9575 649.117,27.8304 22.1291,20.8729 29.5053,187.8555 29.5053,612.27 0,579.8011 0,586.7588 -54.093,621.5468 -46.7168,30.1497 -149.9854,37.1073 -639.2819,37.1073 -553.2249,0 -587.6477,-2.3192 -634.3645,-46.3842 z"
       id="path155"
       style="stroke-width:2.38797;fill:#ffffff" />
    <path
       d="m 3848.1374,3147.8333 c -54.093,-34.788 -54.093,-41.7457 -54.093,-621.5468 0,-424.4145 7.3762,-591.3971 29.5053,-612.27 22.1289,-20.8729 199.1609,-27.8304 649.117,-27.8304 545.8484,0 622.0705,4.6384 651.5758,39.4264 27.0466,27.8305 36.8816,160.0252 41.7993,561.2475 7.3762,551.9707 2.4587,602.9932 -59.0107,660.9733 -56.5519,55.661 -1175.2952,55.661 -1258.8937,0 z"
       id="path157"
       style="stroke-width:2.38797;fill:#ffffff" />
    <path
       d="m 499.28356,1563.8166 c -14.75267,-27.8304 -24.58769,-266.7085 -24.58769,-612.26996 0,-498.62898 4.91751,-570.52426 41.79911,-598.35472 31.9641,-25.51127 169.65562,-32.46886 651.57582,-32.46886 580.2713,0 614.6942,2.3192 649.117,44.06483 54.0932,71.89541 51.6344,1154.96391 -4.9175,1205.98631 -31.9641,32.4689 -127.8564,37.1074 -661.4109,37.1074 -592.56517,0 -626.98801,-2.3193 -651.57584,-44.065 z"
       id="path159"
       style="stroke-width:2.38797;fill:#ffffff" />
    <path
       d="m 2163.8754,1566.1358 c -36.8817,-37.1072 -41.7992,-113.641 -41.7992,-598.35466 0,-445.28726 7.3763,-565.88589 34.4228,-602.99325 34.4229,-41.74563 68.8459,-44.06483 649.1172,-44.06483 481.9202,0 619.6116,6.95759 651.5757,32.46886 36.8817,27.83046 41.7992,99.72574 41.7992,614.58922 0,424.41436 -7.3762,591.39706 -29.5053,612.26996 -22.1289,20.8728 -199.161,27.8305 -646.6582,27.8305 -567.9775,0 -622.0706,-2.3193 -658.9522,-41.7458 z"
       id="path161"
       style="stroke-width:2.38797;fill:#ffffff" />
  </g>
</svg>
